<?xml version="1.0" encoding="UTF-8" standalone="no"?>
<!-- Created with Inkscape (http://www.inkscape.org/) -->

<svg
   xmlns:dc="http://purl.org/dc/elements/1.1/"
   xmlns:cc="http://creativecommons.org/ns#"
   xmlns:rdf="http://www.w3.org/1999/02/22-rdf-syntax-ns#"
   xmlns:svg="http://www.w3.org/2000/svg"
   xmlns="http://www.w3.org/2000/svg"
   xmlns:sodipodi="http://sodipodi.sourceforge.net/DTD/sodipodi-0.dtd"
   xmlns:inkscape="http://www.inkscape.org/namespaces/inkscape"
   width="744.09448819"
   height="1052.3622047"
   id="svg2"
   version="1.1"
   inkscape:version="0.48.4 r9939"
   sodipodi:docname="New document 1">
  <defs
     id="defs4" />
  <sodipodi:namedview
     id="base"
     pagecolor="#ffffff"
     bordercolor="#666666"
     borderopacity="1.0"
     inkscape:pageopacity="0.0"
     inkscape:pageshadow="2"
     inkscape:zoom="1.34"
     inkscape:cx="375"
     inkscape:cy="723.20377"
     inkscape:document-units="px"
     inkscape:current-layer="layer1"
     showgrid="true"
     inkscape:window-width="1920"
     inkscape:window-height="1057"
     inkscape:window-x="-8"
     inkscape:window-y="-8"
     inkscape:window-maximized="1">
    <inkscape:grid
       type="xygrid"
       id="grid2989" />
  </sodipodi:namedview>
  <metadata
     id="metadata7">
    <rdf:RDF>
      <cc:Work
         rdf:about="">
        <dc:format>image/svg+xml</dc:format>
        <dc:type
           rdf:resource="http://purl.org/dc/dcmitype/StillImage" />
        <dc:title></dc:title>
      </cc:Work>
    </rdf:RDF>
  </metadata>
  <g
     inkscape:label="Layer 1"
     inkscape:groupmode="layer"
     id="layer1">
    <path
       style="fill:none;stroke:#000000;stroke-width:1px;stroke-linecap:butt;stroke-linejoin:miter;stroke-opacity:1"
       d="m 545,337.36218 c 9.31548,5.4018 18.11196,7.94914 25,0 8.02486,-9.4268 9.0868,-19.35094 0,-30 18.74482,-1.49379 33.45478,1.85427 40,15 2.34229,6.60358 -1.3834,10.77997 -5,15 20.2694,-5.40789 40.48165,-5.65069 50,20 l -110,0 z"
       id="path2991"
       inkscape:connector-curvature="0"
       sodipodi:nodetypes="cccccccc" />
    <path
       style="fill:#000000"
       d="m 226.23345,378.06724 c 4.27234,-10.4606 11.1856,-16.78069 20.4573,-18.70201 5.60515,-1.16153 11.32071,-0.75228 20.30001,1.45355 2.62561,0.645 4.84061,1.10042 4.9222,1.01204 0.0816,-0.0884 -0.79069,-1.39184 -1.93842,-2.89658 -5.51554,-7.23118 -5.28053,-12.26046 0.88519,-18.94361 5.16712,-5.60073 12.14139,-8.13929 23.50425,-8.55526 4.46354,-0.1634 6.85101,-0.0908 6.85101,0.2082 0,0.25245 -0.38383,0.98749 -0.85294,1.63342 -2.84285,3.91429 -4.50873,10.79707 -3.78268,15.62858 0.87446,5.81925 5.43496,13.33088 9.64668,15.88911 4.25712,2.58581 10.08014,2.1883 16.21765,-1.1071 1.35711,-0.72868 2.54286,-1.32486 2.63501,-1.32486 0.0921,0 0.16753,4.00685 0.16753,8.90411 l 0,8.90411 -49.93599,0 -49.936,0 0.8592,-2.1037 0,0 z"
       id="path3004"
       inkscape:connector-curvature="0" />
    <path
       style="fill:#000000"
       d="m 285.50355,428.30034 c -7.16457,-1.40289 -13.33741,-5.05644 -16.705,-9.88728 -4.2153,-6.04688 -3.96993,-10.4042 0.9479,-16.83313 1.07607,-1.4067 1.95648,-2.67242 1.95648,-2.8127 0,-0.14028 -1.09089,0.0334 -2.4242,0.38598 -16.85882,4.45801 -27.88964,2.97004 -35.6497,-4.80889 -3.30629,-3.31431 -6.95203,-9.25946 -8.0652,-13.15196 l -0.29381,-1.0274 49.98811,0 49.98811,0 0,9.10992 0,9.10991 -3.0566,-1.56344 c -7.81984,-3.99981 -13.88561,-3.77976 -18.56875,0.67364 -2.38986,2.27263 -5.66194,7.91092 -6.6635,11.48227 -1.64313,5.85896 -0.61242,12.35629 2.8166,17.75527 l 1.45499,2.29088 -6.22561,-0.041 c -3.42408,-0.0225 -7.69901,-0.32948 -9.49982,-0.68209 l 0,-2e-5 z"
       id="path3006"
       inkscape:connector-curvature="0" />
    <path
       style="fill:#000000"
       d="m 314.90914,351.57422 c 0.50276,-0.96342 1.4316,-3.25874 2.06408,-5.10071 2.54877,-7.42269 1.01106,-13.44893 -4.55779,-17.86183 -3.41558,-2.70659 -8.39214,-5.08726 -11.75193,-5.62184 -4.81931,-0.7668 -11.89543,1.03507 -15.77215,4.01624 -1.14808,0.88287 -1.22788,0.88919 -1.53736,0.12192 -0.56927,-1.41136 -0.41004,-9.12999 0.28077,-13.61025 1.6079,-10.42804 6.10547,-17.89879 12.94173,-21.49704 4.59315,-2.41758 8.54082,-1.63351 14.00863,2.78234 1.50474,1.21525 2.80727,2.13977 2.89451,2.05448 0.0872,-0.0852 -0.35406,-2.43055 -0.98066,-5.21173 -2.28623,-10.14752 -2.63764,-17.0219 -1.17742,-23.03291 1.45891,-6.00554 6.16763,-12.72295 11.30781,-16.13156 2.74329,-1.81917 7.94438,-4.5058 8.72282,-4.5058 0.31912,0 0.46964,16.88235 0.46964,52.67519 l 0,52.67518 -8.91339,0 -8.91339,0 0.9141,-1.75168 z"
       id="path3008"
       inkscape:connector-curvature="0" />
    <path
       style="fill:#000000"
       d="m 331.74891,300.62362 0,-52.89275 2.55607,1.10512 c 3.88866,1.68125 8.49987,4.85731 11.21323,7.72332 7.52577,7.94918 9.15305,18.64286 5.36306,35.24328 -0.51862,2.2716 -0.8743,4.33153 -0.79039,4.57763 0.0839,0.2461 1.28239,-0.46354 2.66329,-1.57699 1.38089,-1.11345 3.59731,-2.54785 4.92536,-3.18754 2.02948,-0.97757 2.8159,-1.1226 4.93021,-0.90928 6.92004,0.69822 13.97494,8.63221 16.35524,18.39318 0.84984,3.48495 1.55493,12.48341 1.28271,16.37008 l -0.17731,2.53167 -2.78077,-1.75706 c -8.06006,-5.09286 -17.06122,-4.55863 -25.21764,1.49667 -7.9319,5.88864 -9.00752,13.29805 -3.47074,23.90811 l 0.97446,1.86732 -8.91339,0 -8.91339,0 0,-52.89276 z"
       id="path3010"
       inkscape:connector-curvature="0" />
    <path
       style="fill:#000000"
       d="m 340.28485,371.40071 c 0,-4.89726 0.0733,-8.90411 0.16289,-8.90411 0.0896,0 1.36569,0.6095 2.83577,1.35446 8.45115,4.28255 14.69504,3.4597 19.65672,-2.59045 7.25144,-8.84221 7.92202,-19.60639 1.76867,-28.39021 l -1.08163,-1.54401 7.33892,0.24488 c 8.39625,0.28016 12.29211,1.12532 17.44963,3.78545 5.97757,3.0831 10.69582,9.51734 10.67566,14.5583 -0.0118,2.94532 -0.9854,5.24576 -3.74636,8.85169 -1.21347,1.58485 -2.13046,2.96399 -2.03776,3.06476 0.0927,0.10076 1.74446,-0.22589 3.67055,-0.7259 18.49783,-4.80202 30.16021,-1.9061 37.84254,9.39676 1.58536,2.33251 4.61114,8.45769 4.61114,9.33447 0,0.31697 -15.99959,0.46802 -49.57337,0.46802 l -49.57337,0 0,-8.90411 z"
       id="path3012"
       inkscape:connector-curvature="0" />
    <path
       style="fill:#000000"
       d="m 364.23131,429.038 c 0,-0.13505 0.6471,-1.2907 1.43799,-2.5681 2.52532,-4.0787 3.34683,-7.01743 3.33346,-11.92448 -0.009,-3.21962 -0.22558,-4.92647 -0.84104,-6.62101 -1.02724,-2.82828 -3.3848,-6.87521 -5.45865,-9.37019 -4.37892,-5.26814 -11.30986,-5.91115 -19.41956,-1.80162 -1.47008,0.74495 -2.74618,1.35446 -2.83577,1.35446 -0.0896,0 -0.16289,-4.00685 -0.16289,-8.90411 l 0,-8.90411 49.77303,0 49.77303,0 -0.38604,1.1036 c -0.9397,2.68639 -3.01691,6.64548 -4.81139,9.17037 -7.71353,10.85315 -19.1993,13.60744 -37.22786,8.92725 -1.93027,-0.5011 -3.59428,-0.81901 -3.69782,-0.70649 -0.10353,0.11253 0.70845,1.38845 1.8044,2.83537 2.96499,3.91451 3.76061,5.82605 3.76061,9.0352 0,3.59251 -1.13776,5.93773 -4.82528,9.94616 -5.20792,5.66117 -11.62469,7.99068 -23.17932,8.41491 -3.8703,0.1421 -7.0369,0.14786 -7.0369,0.0128 z"
       id="path3014"
       inkscape:connector-curvature="0" />
    <path
       style="fill:none;stroke:#000000;stroke-width:1px;stroke-linecap:butt;stroke-linejoin:miter;stroke-opacity:1"
       d="m 315,342.36218 35,0 c -6.41725,4.73922 -9.15392,11.7788 -10,20 l 0,75 c 3.96452,7.36183 9.74002,4.76323 15,5 -12.83513,11.54597 -27.97738,10.78728 -45,0 8.60533,1.6109 14.06776,0.36463 15,-5 l 0,-75 c -0.67317,-9.32683 -4.44868,-15.55132 -10,-20 z"
       id="path3016"
       inkscape:connector-curvature="0"
       sodipodi:nodetypes="ccccccccc" />
    <path
       style="fill:#000000"
       d="m 329.05759,449.61616 c -4.28039,-0.79195 -8.75735,-2.39161 -13.21989,-4.7236 l -2.74869,-1.43638 1.43979,0.11365 c 2.09197,0.16512 5.66516,-0.29268 7.04845,-0.90306 0.65869,-0.29066 1.63711,-0.95665 2.17427,-1.48 1.90997,-1.86084 1.79244,1.09541 1.70519,-42.89023 l -0.0784,-39.50935 -0.71224,-2.61781 c -1.2178,-4.47597 -3.38596,-8.45695 -6.30606,-11.57865 l -1.53525,-1.64124 15.64578,0 15.64578,0 -1.42801,1.50523 c -3.54133,3.73284 -5.82184,8.64028 -6.8892,14.82487 -0.34796,2.01621 -0.40123,7.38046 -0.40123,40.40462 l 0,38.07974 0.56423,0.82576 c 2.51194,3.67622 5.04235,4.80176 10.27227,4.56916 1.52683,-0.0679 2.77606,-0.0876 2.77606,-0.0438 0,0.17169 -2.9618,2.25506 -4.42513,3.11269 -1.87649,1.09978 -5.01139,2.38253 -7.48586,3.06309 -2.50877,0.68999 -9.10731,0.86824 -12.04189,0.3253 z"
       id="path3018"
       inkscape:connector-curvature="0" />
    <path
       sodipodi:type="arc"
       style="fill:#000000"
       id="path3020"
       sodipodi:cx="340"
       sodipodi:cy="377.36218"
       sodipodi:rx="30"
       sodipodi:ry="35"
       d="m 370,377.36218 a 30,35 0 1 1 -60,0 30,35 0 1 1 60,0 z"
       transform="matrix(1.2349365,0,0,1.3540904,-87.781179,-126.35535)" />
  </g>
</svg>
