<?xml version="1.0" encoding="UTF-8" standalone="no"?>
<!-- Created with Inkscape (http://www.inkscape.org/) -->

<svg
   xmlns:dc="http://purl.org/dc/elements/1.1/"
   xmlns:cc="http://creativecommons.org/ns#"
   xmlns:rdf="http://www.w3.org/1999/02/22-rdf-syntax-ns#"
   xmlns:svg="http://www.w3.org/2000/svg"
   xmlns="http://www.w3.org/2000/svg"
   xmlns:sodipodi="http://sodipodi.sourceforge.net/DTD/sodipodi-0.dtd"
   xmlns:inkscape="http://www.inkscape.org/namespaces/inkscape"
   width="744.09448819"
   height="1052.3622047"
   id="svg2"
   version="1.1"
   inkscape:version="0.48.4 r9939"
   sodipodi:docname="club.svg">
  <defs
     id="defs4">
    <inkscape:path-effect
       effect="bend_path"
       id="path-effect3951"
       is_visible="true"
       bendpath="m 199.80977,389.86218 31.59721,0"
       prop_scale="1"
       scale_y_rel="false"
       vertical="false" />
  </defs>
  <sodipodi:namedview
     id="base"
     pagecolor="#ffffff"
     bordercolor="#666666"
     borderopacity="1.0"
     inkscape:pageopacity="0.0"
     inkscape:pageshadow="2"
     inkscape:zoom="3.01"
     inkscape:cx="141.25226"
     inkscape:cy="724.42538"
     inkscape:document-units="px"
     inkscape:current-layer="layer1"
     showgrid="true"
     showguides="true"
     inkscape:guide-bbox="true"
     inkscape:window-width="1920"
     inkscape:window-height="1057"
     inkscape:window-x="-8"
     inkscape:window-y="-8"
     inkscape:window-maximized="1"
     inkscape:snap-grids="false">
    <inkscape:grid
       type="xygrid"
       id="grid2991" />
    <sodipodi:guide
       orientation="1,0"
       position="320,930"
       id="guide2995" />
    <sodipodi:guide
       orientation="0,1"
       position="-360,790"
       id="guide2997" />
  </sodipodi:namedview>
  <metadata
     id="metadata7">
    <rdf:RDF>
      <cc:Work
         rdf:about="">
        <dc:format>image/svg+xml</dc:format>
        <dc:type
           rdf:resource="http://purl.org/dc/dcmitype/StillImage" />
        <dc:title />
      </cc:Work>
    </rdf:RDF>
  </metadata>
  <g
     inkscape:label="Layer 1"
     inkscape:groupmode="layer"
     id="layer1">
    <path
       style="opacity:0.98999999;fill:#000000;fill-opacity:1;stroke:#000000;stroke-width:2.02030516;stroke-miterlimit:4;stroke-opacity:1;stroke-dasharray:none"
       d=""
       id="path3852"
       inkscape:connector-curvature="0" />
    <path
       style="opacity:0.98999999;fill:#000000;fill-opacity:1;stroke:#000000;stroke-width:0.50507629;stroke-miterlimit:4;stroke-opacity:1;stroke-dasharray:none"
       d=""
       id="path3868"
       inkscape:connector-curvature="0" />
    <path
       style="opacity:0.98999999;fill:#000000;fill-opacity:1;stroke:#000000;stroke-width:0.50507629;stroke-miterlimit:4;stroke-opacity:1;stroke-dasharray:none"
       d=""
       id="path3872"
       inkscape:connector-curvature="0" />
    <path
       style="opacity:0.98999999;fill:#000000;fill-opacity:1;stroke:#000000;stroke-width:0.35714287;stroke-miterlimit:4;stroke-opacity:1;stroke-dasharray:none"
       d=""
       id="path3925"
       inkscape:connector-curvature="0" />
    <path
       style="opacity:0.98999999000000005;fill:#d4aa00;fill-opacity:1;stroke:#000000;stroke-width:0.35714287000000000;stroke-miterlimit:4;stroke-opacity:1;stroke-dasharray:none"
       d=""
       id="path3927"
       inkscape:connector-curvature="0" />
    <path
       style="opacity:0.98999999;fill:#000000;fill-opacity:1;stroke:#aa8800;stroke-width:0.35714287;stroke-miterlimit:4;stroke-opacity:1;stroke-dasharray:none"
       d=""
       id="path3935"
       inkscape:connector-curvature="0" />
    <path
       style="opacity:0.98999999;fill:#000000;fill-opacity:1;stroke:#aa8800;stroke-width:0.35714287;stroke-miterlimit:4;stroke-opacity:1;stroke-dasharray:none"
       d=""
       id="path3937"
       inkscape:connector-curvature="0" />
    <path
       style="opacity:0.98999999;fill:#000000;fill-opacity:1;stroke:#aa8800;stroke-width:0.35714287;stroke-miterlimit:4;stroke-opacity:1;stroke-dasharray:none"
       d="m 201.33299,405.35345 c -0.0678,-0.30868 -0.0831,-0.60143 -0.034,-0.65053 0.0491,-0.0491 0.14475,0.16327 0.21255,0.47196 0.0678,0.30869 0.0831,0.60143 0.034,0.65054 -0.0491,0.0491 -0.14476,-0.16328 -0.21256,-0.47197 z"
       id="path3943"
       inkscape:connector-curvature="0" />
    <path
       style="fill:#000000;stroke:#d4aa00;stroke-width:1px;stroke-linecap:butt;stroke-linejoin:miter;stroke-opacity:1"
       d="m 264.48185,430.44212 c 4.5213,-0.24815 5.43127,-4.04487 5.08759,-8.28542 -0.56338,-6.95127 3.47935,-11.41107 9.40734,-11.96711 2.5,14.4448 10.68648,-7.82361 14.80833,8.17533 4.12185,-2.68889 3.94267,-17.14059 0.82301,-22.54399 -4.14854,-7.18549 -23.55731,-1.45585 -14.49492,-19.74746 -6.44001,-0.33404 -7.55821,-2.18459 -10,-5 -2.86139,-3.29921 -6.50627,-9.35949 -5.50508,-13.98985 z"
       id="path3949"
       inkscape:connector-curvature="0"
       sodipodi:nodetypes="csccscscc" />
    <path
       style="fill:none;stroke:#000000;stroke-width:0.9414075px;stroke-linecap:butt;stroke-linejoin:miter;stroke-opacity:1"
       d="m 200.16578,369.59603 c -0.83265,5.27114 -2.3085,8.65045 -6.07313,12.17929 -4.53741,4.2532 -11.03145,6.55093 -14.34762,13.75032 11.14837,-7.14032 15.36791,7.86526 13.46397,12.29404 -1.20963,2.81375 -3.71802,8.25058 -9.42544,8.17267 -8.73788,-0.58299 -9.93083,-13.68506 -9.57524,-13.68506 0,0 -5.25709,6.03458 -7.58964,18.3389 -1.20353,17.7215 2.96479,21.23841 7.15671,28.05231 1.20235,-4.39799 5.84355,-13.19935 11.96887,-14.40505 5.53222,-1.08895 13.92451,3.6239 14.19787,15.16323 z"
       id="path3057"
       inkscape:connector-curvature="0"
       sodipodi:nodetypes="cscsccccscc" />
    <path
       style="fill:#ff0000;stroke:#ff0000;stroke-width:2.04946208000000010px;stroke-linecap:butt;stroke-linejoin:miter;stroke-opacity:1"
       d="m 83.971808,436.93971 c -1.812696,-11.47538 -5.025649,-18.83219 -13.221321,-26.51454 -9.878028,-9.25929 -24.015677,-14.2615 -31.235043,-29.93472 24.270215,15.54461 33.456235,-17.12282 29.311321,-26.76435 -2.633388,-6.12559 -8.0942,-17.96167 -20.519363,-17.79206 -19.022532,1.26918 -21.619607,29.79264 -20.84548,29.79264 0,0 -11.444786,-13.13741 -16.522792,-39.92415 -2.6201086,-38.58004 6.454404,-46.23642 15.580295,-61.0704 2.617538,9.5745 12.721519,28.73522 26.056457,31.36006 12.04375,2.37066 30.313926,-7.88929 30.909036,-33.01064 z"
       id="path3057-0"
       inkscape:connector-curvature="0"
       sodipodi:nodetypes="cscsccccscc" />
    <path
       style="fill:#ff0000;stroke:#ff0000;stroke-width:2.04946208000000010px;stroke-linecap:butt;stroke-linejoin:miter;stroke-opacity:1"
       d="m 84.184805,436.96568 c 1.812696,-11.47538 5.025649,-18.83219 13.221321,-26.51454 9.878024,-9.25929 24.015674,-14.2615 31.235044,-29.93472 -24.27022,15.54461 -33.456236,-17.12282 -29.311322,-26.76435 2.633392,-6.12559 8.094202,-17.96167 20.519362,-17.79206 19.02253,1.26918 21.61961,29.79264 20.84548,29.79264 0,0 11.44479,-13.13741 16.52279,-39.92415 2.62011,-38.58004 -6.4544,-46.23642 -15.58029,-61.0704 -2.61754,9.5745 -12.72152,28.73522 -26.05646,31.36006 -12.04375,2.37066 -30.313925,-7.88929 -30.909035,-33.01064 z"
       id="path3057-0-4"
       inkscape:connector-curvature="0"
       sodipodi:nodetypes="cscsccccscc" />
  </g>
</svg>
